<svg xmlns="http://www.w3.org/2000/svg" data-name="RGB Logo Mørkeblå" width="300" height="154" viewBox="0 0 300 154" style=""><rect id="backgroundrect" width="100%" height="100%" x="0" y="0" fill="none" stroke="none"/><defs><style>.cls-1{fill:#2a2859;}</style></defs><title>RGB Logo Mørkeblå</title><g class="currentLayer" style=""><title>Layer 1</title><path class="cls-1" d="M102.34132110595704,34.190000305175786 l-2.09,-1.34 a67.43,67.43 0 0 0 -10.16,-5.37 l0,0 c-1.48,-0.6200000000000001 -3,-1.2 -4.53,-1.7200000000000002 a66.79,66.79 0 0 0 -11.15,-2.7600000000000002 c-1.6,-0.25 -3.24,-0.45 -4.86,-0.5900000000000001 a71.22,71.22 0 0 0 -11.5,0 c-1.62,0.14 -3.26,0.3400000000000001 -4.86,0.5900000000000001 a66.79,66.79 0 0 0 -11.15,2.7600000000000002 c-1.53,0.52 -3,1.1 -4.52,1.7200000000000002 l-0.05000000000000001,0 a67.43,67.43 0 0 0 -10.16,5.37 l-2.09,1.34 L14.841321105957036,14.490000305175784 L16.641321105957033,13.430000305175781 A89.39,89.39 0 0 1 27.47132110595703,7.690000305175786 l1.94,-0.8700000000000001 l3.71,7.08 c1.05,-0.42000000000000004 2.11,-0.8200000000000001 3.17,-1.21 l-1.9100000000000001,-7.76 l2,-0.6500000000000001 a90.4,90.4 0 0 1 11.83,-2.92 l2.09,-0.36000000000000004 l1.9100000000000001,7.75 l0.55,-0.07 q1.4100000000000001,-0.19000000000000003 2.8200000000000003,-0.33000000000000007 v-8 l2.12,-0.14 c2,-0.14 4.08,-0.21000000000000002 6.09,-0.21000000000000002 s4.06,0.07 6.09,0.21000000000000002 l2.12,0.14 v8 c1.12,0.11000000000000001 2.25,0.25 3.37,0.4 l1.9100000000000001,-7.75 l2.09,0.36000000000000004 a90,90 0 0 1 11.83,2.92 l2,0.6500000000000001 l-1.9100000000000001,7.76 c1.06,0.39000000000000007 2.12,0.79 3.17,1.21 l3.71,-7.08 l1.94,0.8700000000000001 A89.39,89.39 0 0 1 110.88132110595703,13.430000305175781 l1.8,1.11 zm-81.5,-18 l6.08,11.58 a72.29,72.29 0 0 1 8.74,-4.42 l0.07,0 c1.56,-0.6600000000000001 3.18,-1.28 4.8,-1.84 A71.81,71.81 0 0 1 52.47132110595703,18.500000305175774 c1.71,-0.27 3.45,-0.48000000000000004 5.18,-0.6300000000000001 a73.81,73.81 0 0 1 12.26,0 c1.73,0.15000000000000002 3.47,0.36000000000000004 5.19,0.6300000000000001 A71.94,71.94 0 0 1 86.99132110595704,21.43000030517578 c1.62,0.56 3.24,1.18 4.82,1.84 l0,0 a73.17,73.17 0 0 1 8.75,4.42 l6.07,-11.58 c-2.11,-1.24 -4.28,-2.38 -6.49,-3.43 l-3.67,7 l-1.94,-0.8400000000000001 l-0.77,-0.33000000000000007 c-1.94,-0.8200000000000001 -3.93,-1.57 -5.94,-2.23 l-2,-0.6600000000000001 l1.9,-7.68 c-2.35,-0.6900000000000002 -4.74,-1.27 -7.13,-1.7600000000000002 l-1.9,7.68 l-2.07,-0.35000000000000003 c-2.36,-0.4 -4.76,-0.6900000000000002 -7.14,-0.8600000000000001 l-2.1,-0.15000000000000002 V4.630000305175784 c-2.45,-0.11000000000000001 -4.88,-0.11000000000000001 -7.34,0 v7.91 l-2.1,0.15000000000000002 c-1.55,0.11000000000000001 -3.11,0.28 -4.65,0.48000000000000004 c-0.8300000000000001,0.12000000000000001 -1.6700000000000002,0.24000000000000002 -2.49,0.38000000000000006 l-2.07,0.35000000000000003 l-1.9,-7.68 c-2.39,0.49000000000000005 -4.78,1.07 -7.13,1.7600000000000002 l1.9,7.68 l-2,0.6600000000000001 c-2,0.6600000000000001 -4,1.4100000000000001 -5.94,2.23 l-0.77,0.33000000000000007 l-1.9300000000000002,0.8400000000000001 l-3.68,-7 C25.121321105957037,13.770000305175785 22.951321105957035,14.910000305175785 20.841321105957036,16.15000030517578 z" id="svg_1"/><path class="cls-1" d="M63.73132110595702,154.02000030517578 a63.69,63.69 0 1 1 45,-18.66 A63.27,63.27 0 0 1 63.73132110595702,154.02000030517578 zm0,-122.62 a58.95,58.95 0 1 0 41.67,17.27 A58.51,58.51 0 0 0 63.73132110595702,31.43000030517578 z" id="svg_2"/><path class="cls-1" d="M51.47132110595703,72.23000030517579 a15.24,15.24 0 1 1 24.44,0 l3.36,2.5 a19.22,19.22 0 0 0 3.85,-11.6 a19.43,19.43 0 1 0 -35,11.61 z" id="svg_3"/><path class="cls-1" d="M63.70132110595702,76.88000030517577 a7.61,7.61 0 0 0 7.6,-7.6 v-0.7500000000000001 h2.5 v-4.84 a10.1,10.1 0 0 0 -20.2,0 v4.84 h2.51 v0.7500000000000001 A7.6,7.6 0 0 0 63.70132110595702,76.88000030517577 zm-5.91,-13.19 a5.91,5.91 0 1 1 11.82,0 v4.84 h-1.8 v0.7500000000000001 a4.11,4.11 0 1 1 -8.21,0 v-0.7500000000000001 h-1.81 z" id="svg_4"/><rect class="cls-1" x="20.22132110595703" y="93.23999786376953" width="5.849999904632568" height="5.849999904632568" id="svg_5"/><path class="cls-1" d="M110.77132110595704,88.70000030517579 v3.14 h3 l-8.13,8.14 V85.82000030517577 l2.08,2.09 l2.22,-2.22 l-5.87,-5.88 l-5.91,5.91 l2.22,2.22 l2.12,-2.12 v14.14 l-8.12,-8.12 h2.95 v-3.14 h-8.32 v8.36 h3.15 v-3 L98.47132110595703,100.43000030517578 H85.71132110595704 l-1.33,-1.19 l-1.1400000000000001,-10.41 c-0.06000000000000001,-0.56 -0.6800000000000002,-5.92 -5.13,-8.21 l-0.11000000000000001,0 L73.47132110595703,78.83000030517579 l-0.6900000000000002,-0.26 l-0.6900000000000002,0.22000000000000003 a31.13,31.13 0 0 1 -8.42,0.92 a30.91,30.91 0 0 1 -8.41,-0.92 l-0.7000000000000001,-0.22000000000000003 l-5.19,2 l-0.11000000000000001,0 c-4.45,2.29 -5.07,7.640000000000001 -5.12,8.21 l-1.18,10.78 l-1,0.8200000000000001 h-4.43 a15.25,15.25 0 0 0 0.6100000000000001,-4.24 A15,15 0 1 0 20.841321105957036,111.03000030517578 h0.19000000000000003 c0.4,0.06000000000000001 0.8,0.1 1.21,0.13 l19.5,2 a108.31,108.31 0 0 1 -3.89,19.49 l2,0.6600000000000001 l2,0.6500000000000001 A110.57,110.57 0 0 0 45.921321105957034,113.43000030517578 l4.39,-3.72 l-0.6700000000000002,27.18 l1.7600000000000002,0.32000000000000006 a72.35,72.35 0 0 0 24.85,0 l1.75,-0.33000000000000007 l-0.6700000000000002,-27.14 l4.41,3.74 a110.34,110.34 0 0 0 4.09,20.5 l4,-1.31 a107.56,107.56 0 0 1 -3.89,-19.47 l19.63,-1.82 v-6.84 l10.43,-10.44 v3 h3.14 v-8.31 zm-47.07,-4.8100000000000005 a38.28,38.28 0 0 0 9,-0.91 l3.64,1.3900000000000001 c2.43,1.33 2.77,4.78 2.7800000000000002,4.8100000000000005 l0.9,8.23 h-5.07 a11.08,11.08 0 0 1 -5.82,-1.59 a17.83,17.83 0 0 1 -3.5,-3.41 L58.47132110595703,83.62000030517578 A46.62,46.62 0 0 0 63.70132110595702,83.89000030517579 zm-40.56,23.13 h-0.53 l-1.13,-0.12000000000000001 a10.85,10.85 0 1 1 1.6600000000000001,0.13 zM50.47132110595703,104.09000030517578 l-6,5.11 l-12,-1.21 a14.73,14.73 0 0 0 3.18,-3.41 h7.94 l7,-5.91 zm0.32000000000000006,-11 h-0.06000000000000001 v0 l-3.08,2.6 l0.7000000000000001,-6.44 v-0.06000000000000001 s0.3400000000000001,-3.48 2.7800000000000002,-4.8100000000000005 l2,-0.7600000000000001 l3.59,4.44 zm13,41 a69.63,69.63 0 0 1 -9.82,-0.7000000000000001 l0.22000000000000003,-8.88 h0 l0.7100000000000001,-29.42 l4.47,-3.7600000000000002 l3,3.6900000000000004 a21.32,21.32 0 0 0 4.61,4.39 a14.92,14.92 0 0 0 6,2.09 l0.78,31.87 A70.53,70.53 0 0 1 63.73132110595702,134.07000030517577 zm37.63,-26.55 l-18.13,1.6900000000000002 l-9,-7.63 l0.6600000000000001,0 h5.86 l3.35,3 h17.25 z" id="svg_6"/><path class="cls-1" d="M163.01132110595702,87.57000030517577 c0,-15.54 9.78,-25 21.77,-25 s21.76,9.5 21.76,25 c0,16.07 -9.78,25.71 -21.76,25.71 S163.01132110595702,103.64000030517579 163.01132110595702,87.57000030517577 zm37.37,0 c0,-13.39 -6.9,-19.42 -15.6,-19.42 s-15.61,6 -15.61,19.42 s7.17,20.09 15.61,20.09 S200.38132110595706,100.96000030517578 200.38132110595706,87.57000030517577 z" id="svg_7"/><path class="cls-1" d="M227.27132110595704,76.52000030517578 c6.5600000000000005,0 11.38,2.88 13.25,7.57 l-4.35,2.21 c-1.47,-3.15 -4.69,-4.890000000000001 -9,-4.890000000000001 c-4.55,0 -7.57,1.81 -7.57,4.82 c0,2.6100000000000003 1.6800000000000002,4.15 5.5,5 l5.15,1 c7.7,1.54 11.39,5 11.39,10.31 c0,6.36 -5.63,10.72 -13.93,10.72 c-7.24,0 -12.39,-2.8200000000000003 -14.94,-8 l4.42,-2.34 C218.96132110595704,106.43000030517578 222.47132110595703,108.43000030517578 227.53132110595703,108.43000030517578 s8.51,-2.21 8.51,-5.5600000000000005 c0,-2.95 -1.7400000000000002,-4.5600000000000005 -5.83,-5.43 l-6.09,-1.2 c-6.5600000000000005,-1.34 -10.11,-4.69 -10.11,-9.58 C214.01132110595705,80.87000030517578 219.47132110595703,76.52000030517578 227.27132110595704,76.52000030517578 z" id="svg_8"/><path class="cls-1" d="M259.21132110595704,113.02000030517578 c-6,0 -8.91,-3.6900000000000004 -8.91,-9.45 V63.13000030517577 h5.76 v40.18 c0,3.08 1.6700000000000002,4.55 4.49,4.55 a8.26,8.26 0 0 0 2.14,-0.27 v5 A15.49,15.49 0 0 1 259.21132110595704,113.02000030517578 z" id="svg_9"/><path class="cls-1" d="M267.58132110595704,94.80000030517579 c0,-11.05 7.23,-18.28 16.27,-18.28 s16.2,7.23 16.2,18.28 c0,11.25 -7.3,18.48 -16.2,18.48 S267.58132110595704,106.05000030517579 267.58132110595704,94.80000030517579 zm26.51,0 c0,-9 -4.68,-13.26 -10.24,-13.26 s-10.32,4.22 -10.32,13.26 s4.63,13.46 10.32,13.46 S294.09132110595704,103.84000030517578 294.09132110595704,94.80000030517579 z" id="svg_10"/></g></svg>